<svg xmlns="http://www.w3.org/2000/svg" width="23" height="32" viewBox="0 0 23 32">
  <metadata><?xpacket begin="﻿" id="W5M0MpCehiHzreSzNTczkc9d"?>
<x:xmpmeta xmlns:x="adobe:ns:meta/" x:xmptk="Adobe XMP Core 5.6-c138 79.159824, 2016/09/14-01:09:01        ">
   <rdf:RDF xmlns:rdf="http://www.w3.org/1999/02/22-rdf-syntax-ns#">
      <rdf:Description rdf:about=""/>
   </rdf:RDF>
</x:xmpmeta>
                                                                                                    
                                                                                                    
                                                                                                    
                                                                                                    
                                                                                                    
                                                                                                    
                                                                                                    
                                                                                                    
                                                                                                    
                                                                                                    
                                                                                                    
                                                                                                    
                                                                                                    
                                                                                                    
                                                                                                    
                                                                                                    
                                                                                                    
                                                                                                    
                                                                                                    
                                                                                                    
                           
<?xpacket end="w"?></metadata>
<defs>
    <style>
      .cls-1 {
        fill: #4881bf;
        fill-rule: evenodd;
      }
    </style>
  </defs>
  <path class="cls-1" d="M964,348.477a0.766,0.766,0,0,0-.208-0.522l-5.5-5.736h0a0.7,0.7,0,0,0-.507-0.219H942.512A1.547,1.547,0,0,0,941,343.577v28.846A1.547,1.547,0,0,0,942.512,374h19.976A1.547,1.547,0,0,0,964,372.423V348.484A0.019,0.019,0,0,0,964,348.477Zm-5.5-3.919,3.046,3.177h-2.97a0.077,0.077,0,0,1-.076-0.079v-3.1h0Zm4.062,27.865a0.078,0.078,0,0,1-.076.079H942.512a0.078,0.078,0,0,1-.076-0.079V343.577a0.078,0.078,0,0,1,.076-0.079h14.554v4.158a1.548,1.548,0,0,0,1.512,1.578h3.986v23.189h0Zm-3.708-20.172H946.144a0.75,0.75,0,0,0,0,1.5h12.711A0.75,0.75,0,0,0,958.856,352.251Zm0,4.521H946.144a0.75,0.75,0,0,0,0,1.5h12.711A0.75,0.75,0,0,0,958.856,356.772Zm0,4.521H946.144a0.75,0.75,0,0,0,0,1.5h12.711A0.75,0.75,0,0,0,958.856,361.293Zm-6.356,4.521h-6.356a0.75,0.75,0,0,0,0,1.5H952.5A0.75,0.75,0,0,0,952.5,365.814Z" transform="translate(-941 -342)"/>
</svg>
