<!-- Generated by IcoMoon.io -->
<svg version="1.1" xmlns="http://www.w3.org/2000/svg" width="512" height="512" viewBox="0 0 512 512">
<title>placeholder-filled-point</title>
<g id="icomoon-ignore">
</g>
<path fill="#4881bf" d="M381.304 237.377c-23.77 11.32-43.151 45.687-65.822 23.010-13.777-14.954-30.123-38.745-48.904-65.655-20.308-28.93-46.197-53.804-76.657-25.384-34.007 31.987-57.365 118.787-59.391 163.459l321.329 0.11c-7.353-26.248-35.913-112.034-70.555-95.538z"></path>
<path fill="#4881bf" d="M419.315 147.463c0 21.821-17.69 39.511-39.511 39.511s-39.511-17.69-39.511-39.511c0-21.821 17.69-39.511 39.511-39.511s39.511 17.689 39.511 39.511z"></path>
<path fill="#4881bf" d="M500.248 57.288h-418.097c-6.483 0-11.747 5.259-11.747 11.742v59.391h-58.657c-6.482 0.005-11.747 5.259-11.747 11.742v302.798c0 6.488 5.264 11.742 11.747 11.742h418.097c6.483 0 11.747-5.264 11.747-11.742v-59.38h58.662c6.478 0 11.747-5.259 11.747-11.742v-302.808c-0.005-6.477-5.274-11.742-11.752-11.742zM410.063 423.184h-378.534v-263.23h38.876v183.016c-5.9 22.791-9.534 44.692-10.273 60.985l321.335 0.104c-1.411-5.019-3.608-12.236-6.467-20.479h35.064v39.605zM480.466 352.046h-378.534v-263.224h378.534v263.224z"></path>
</svg>
