<!-- Generated by IcoMoon.io -->
<svg version="1.1" xmlns="http://www.w3.org/2000/svg" width="512" height="512" viewBox="0 0 512 512">
<title>placeholder-filled-point</title>
<g id="icomoon-ignore">
</g>
<path fill="#4881bf" d="M255.992 0c-103.927 0-188.488 84.561-188.488 188.498 0 27.111 5.549 52.995 16.484 76.942 47.127 103.125 137.483 212.003 164.059 242.913 1.991 2.311 4.894 3.642 7.949 3.642s5.958-1.331 7.949-3.642c26.566-30.904 116.921-139.778 164.065-242.913 10.941-23.946 16.485-49.831 16.485-76.942-0.010-103.938-84.571-188.498-188.503-188.498zM255.992 286.404c-53.986 0-97.912-43.925-97.912-97.911 0-53.992 43.925-97.917 97.911-97.917s97.911 43.925 97.911 97.917c0.005 53.986-43.921 97.911-97.911 97.911z"></path>
</svg>
