<svg xmlns="http://www.w3.org/2000/svg" width="34" height="31" viewBox="0 0 34 31">
  <metadata><?xpacket begin="﻿" id="W5M0MpCehiHzreSzNTczkc9d"?>
<x:xmpmeta xmlns:x="adobe:ns:meta/" x:xmptk="Adobe XMP Core 5.6-c138 79.159824, 2016/09/14-01:09:01        ">
   <rdf:RDF xmlns:rdf="http://www.w3.org/1999/02/22-rdf-syntax-ns#">
      <rdf:Description rdf:about=""/>
   </rdf:RDF>
</x:xmpmeta>
                                                                                                    
                                                                                                    
                                                                                                    
                                                                                                    
                                                                                                    
                                                                                                    
                                                                                                    
                                                                                                    
                                                                                                    
                                                                                                    
                                                                                                    
                                                                                                    
                                                                                                    
                                                                                                    
                                                                                                    
                                                                                                    
                                                                                                    
                                                                                                    
                                                                                                    
                                                                                                    
                           
<?xpacket end="w"?></metadata>
<defs>
    <style>
      .cls-1 {
        fill: #4881bf;
        fill-rule: evenodd;
      }
    </style>
  </defs>
  <path id="Forma_1" data-name="Forma 1" class="cls-1" d="M935,1521.6a9.109,9.109,0,0,1,5.565-7.53,4.779,4.779,0,1,1,6.026-.03,8.92,8.92,0,0,1,2.555,1.44,13.445,13.445,0,0,0-7.339,10.75c0,0.06,0,.11,0,0.17-4.015-.26-4.425-1.38-4.425-1.38h0a2.038,2.038,0,0,0-1.527-1.45S934.954,1523.22,935,1521.6Zm16.743-5.95a13.5,13.5,0,0,0-8.246,11.17c-0.069,2.4,1.262,2.9,1.262,2.9v0.01a3.253,3.253,0,0,0,1.414.73,3.368,3.368,0,0,0,.851,1.42h0s0.637,1.75,7.037,2.07c0.095,0.02.188,0.03,0.28,0.05h4.034l0.478-.09c6.577-.44,7.269-2.55,7.269-2.55h0a3.523,3.523,0,0,0,.424-0.9c2.993-.6,2.756-4.26,1.86-7.06a12.545,12.545,0,0,0-7.735-7.79A7.075,7.075,0,1,0,951.743,1515.65Z" transform="translate(-935 -1503)"/>
</svg>
